<svg aria-hidden="true" style="position: absolute; width: 0; height: 0; overflow: hidden;" version="1.1" xmlns="http://www.w3.org/2000/svg" xmlns:xlink="http://www.w3.org/1999/xlink">
<defs>
<symbol id="close-btn" viewBox="0 0 32 32">
<path d="M31.439 3.166l-3.166-3.166-12.553 12.553-12.553-12.553-3.166 3.166 12.553 12.553-12.553 12.553 3.166 3.166 12.553-12.553 12.553 12.553 3.166-3.166-12.553-12.553 12.553-12.553z"></path>
</symbol>
<symbol id="left-arrow" viewBox="0 0 20 32">
<path d="M19.512 2.602c0 0.25-0.134 0.532-0.336 0.72l-13.175 12.294 13.175 12.293c0.202 0.188 0.336 0.47 0.336 0.72s-0.134 0.531-0.336 0.72l-1.676 1.563c-0.201 0.188-0.503 0.313-0.771 0.313s-0.57-0.125-0.771-0.312l-15.624-14.579c-0.201-0.187-0.335-0.469-0.335-0.72s0.134-0.531 0.336-0.72l15.622-14.576c0.201-0.188 0.503-0.313 0.771-0.313s0.57 0.125 0.771 0.312l1.677 1.564c0.201 0.188 0.335 0.438 0.335 0.72v0.001z"></path>
</symbol>
<symbol id="right-arrow" viewBox="0 0 20 32">
<path d="M0 2.662c0 0.256 0.138 0.546 0.344 0.738l13.504 12.602-13.504 12.599c-0.207 0.194-0.344 0.482-0.344 0.738s0.138 0.544 0.344 0.738l1.718 1.602c0.206 0.193 0.515 0.321 0.79 0.321s0.584-0.128 0.79-0.32l16.014-14.942c0.206-0.192 0.343-0.481 0.343-0.738s-0.138-0.545-0.344-0.738l-16.013-14.941c-0.207-0.193-0.516-0.321-0.791-0.321s-0.584 0.128-0.79 0.32l-1.718 1.604c-0.206 0.192-0.343 0.449-0.343 0.737v0.001z"></path>
</symbol>
</defs>
</svg>
