<svg aria-hidden="true" version="1.1">
<defs>
<symbol id="left-arrow" viewBox="0 0 20 32">
<path d="M19.512 2.602c0 0.25-0.134 0.532-0.336 0.72l-13.175 12.294 13.175 12.293c0.202 0.188 0.336 0.47 0.336 0.72s-0.134 0.531-0.336 0.72l-1.676 1.563c-0.201 0.188-0.503 0.313-0.771 0.313s-0.57-0.125-0.771-0.312l-15.624-14.579c-0.201-0.187-0.335-0.469-0.335-0.72s0.134-0.531 0.336-0.72l15.622-14.576c0.201-0.188 0.503-0.313 0.771-0.313s0.57 0.125 0.771 0.312l1.677 1.564c0.201 0.188 0.335 0.438 0.335 0.72v0.001z"></path>
</symbol>
<symbol id="right-arrow" viewBox="0 0 20 32">
<path d="M0 2.662c0 0.256 0.138 0.546 0.344 0.738l13.504 12.602-13.504 12.599c-0.207 0.194-0.344 0.482-0.344 0.738s0.138 0.544 0.344 0.738l1.718 1.602c0.206 0.193 0.515 0.321 0.79 0.321s0.584-0.128 0.79-0.32l16.014-14.942c0.206-0.192 0.343-0.481 0.343-0.738s-0.138-0.545-0.344-0.738l-16.013-14.941c-0.207-0.193-0.516-0.321-0.791-0.321s-0.584 0.128-0.79 0.32l-1.718 1.604c-0.206 0.192-0.343 0.449-0.343 0.737v0.001z"></path>
</symbol>
<symbol id='icon-close' width="24" height="24" viewBox="0 0 24 24"><path d="M19 6.41L17.59 5 12 10.59 6.41 5 5 6.41 10.59 12 5 17.59 6.41 19 12 13.41 17.59 19 19 17.59 13.41 12z" fill="#fff"/><path d="M0 0h24v24H0z" fill="none"/></symbol>
</defs>
</svg>
